<svg width="77" height="80" viewBox="0 0 77 80" fill="none" xmlns="http://www.w3.org/2000/svg">
<path d="M67.9583 8.74996H63.75V0.916626H55.3333V8.74996H21.6667V0.916626H13.25V8.74996H9.04167C4.4125 8.74996 0.625 12.275 0.625 16.5833V71.4166C0.625 75.7641 4.4125 79.25 9.04167 79.25H67.9583C72.6296 79.25 76.375 75.7641 76.375 71.4166V16.5833C76.375 12.275 72.6296 8.74996 67.9583 8.74996ZM67.9583 71.4166H9.04167V32.25H67.9583V71.4166ZM9.04167 24.4166V16.5833H67.9583V24.4166H9.04167ZM17.4583 40.0833H59.5417V47.9166H17.4583V40.0833ZM17.4583 55.75H46.9167V63.5833H17.4583V55.75Z" fill="#535353"/>
</svg>
